<svg version="1.2" xmlns="http://www.w3.org/2000/svg" viewBox="0 0 600 300" width="600" height="300">
	<title>herd-svg</title>
	<style>
		.s0 { fill: #ffffff } 
		.s1 { fill: none;stroke: #ffffff;stroke-width: 10.1 } 
	</style>
	<path id="Layer" fill-rule="evenodd" class="s0" d="m474 75v50.1c2.9-1.2 5.9-2.1 9-2.1 3.8 0 8.5 0.9 12.9 4.1 1.7 1.3 3.1 3.3 4.3 5.3 2.9-2 6.2-3.3 9.7-3.4 3.7-0.1 8.3 0.9 12.8 4.1 2.6 1.9 4.8 5.1 6.3 8.7 2.6-0.6 5.7-0.8 8.7-0.8 12.4 1.5 20.7 11.3 23.8 23.1 3.2 12.2 3.2 25.9 0.9 40.7-2.3 14.7-6.7 29.7-12.5 42.7-5.7 13-12.7 23.9-21.3 30.3q-1.7 1.2-3.6 1.2h-81c-1.7 0-3.4-0.8-4.5-2.1-23.3-27.3-42.5-63.3-58.1-100.7-3.2-8.2-4.3-15-2.6-20.9 3.1-10.5 17.1-19.6 28.5-16.5 8.3 2.1 15 10.8 18.7 18.8v-82.6c0-13.2 10.8-24 24-24 11.1 0 23.7 7.9 24 24zm-36 0v108c0 2.7-2 5.2-4.6 5.8-2.6 0.6-5.5-0.7-6.7-3.1l-11.9-23.9c-2.8-4.9-4.4-9.1-10.7-11.5-5.4-0.8-11.6 2.4-13.8 8.2-0.6 2.3-0.4 6.3 2.3 13.3 13.1 32.2 33.2 70.4 54.3 95.2h75.7c5.3-4.5 11.4-13.2 16.4-24.4 5.3-11.9 9.4-26.1 11.5-39.7 2.1-13.6 2-26.5-0.6-35.6-2.5-8.9-6.2-13.4-13.4-14.3-2.9-0.1-5.1 0.3-7.4 1.4-1.7 1.6-4.4 2.1-6.5 1.2-2.1-1-3.6-3.3-3.6-5.6 0-4.3-1.4-5.8-3.3-7.1-1.9-1.4-4.8-1.9-5.6-1.9-3 0.1-4.3 0.8-6.8 5.7-1.2 2.4-4.1 3.7-6.7 3.1-2.6-0.6-4.6-3.1-4.6-5.8 0-4.4-1.3-5.9-3.1-7.1-1.7-1.3-4.4-1.9-5.9-1.9-3.2 0-8.2 2.9-9.6 5.6-1.1 2.5-4.1 3.9-6.7 3.3-2.7-0.6-4.7-3.2-4.7-5.9v-63c0-6.8-5.2-12-12-12-6.8 0-12 5.2-12 12z"/>
	<path id="Layer" fill-rule="evenodd" class="s0" d="m114 75v50.1c2.9-1.2 5.9-2.1 9-2.1 3.8 0 8.5 0.9 12.9 4.1 1.7 1.3 3.1 3.3 4.3 5.3 2.9-2 6.2-3.3 9.7-3.4 3.7-0.1 8.3 0.9 12.8 4.1 2.6 1.9 4.8 5.1 6.3 8.7 2.6-0.6 5.7-0.8 8.7-0.8 12.4 1.5 20.7 11.3 23.8 23.1 3.2 12.2 3.2 25.9 0.9 40.7-2.3 14.7-6.7 29.7-12.5 42.7-5.7 13-12.7 23.9-21.3 30.3q-1.6 1.2-3.6 1.2h-81c-1.7 0-3.4-0.8-4.5-2.1-23.3-27.3-42.5-63.3-58.1-100.7-3.2-8.2-4.3-15-2.6-20.9 3.1-10.5 17.1-19.6 28.5-16.5 8.3 2.1 15 10.8 18.7 18.8v-82.6c0-13.2 10.8-24 24-24 11.1 0 23.7 7.9 24 24zm-36 0v108c0 2.7-2 5.2-4.6 5.8-2.6 0.6-5.5-0.7-6.7-3.1l-11.9-23.9c-2.8-4.9-4.4-9.1-10.7-11.5-5.4-0.8-11.6 2.4-13.8 8.2-0.6 2.3-0.4 6.3 2.3 13.3 13.1 32.2 33.2 70.4 54.3 95.2h75.7c5.3-4.5 11.4-13.2 16.4-24.4 5.3-11.9 9.4-26.1 11.5-39.7 2.1-13.6 2-26.5-0.6-35.6-2.5-8.9-6.2-13.4-13.4-14.3-2.9-0.1-5.1 0.3-7.4 1.4-1.7 1.6-4.4 2.1-6.5 1.2-2.1-1-3.6-3.3-3.6-5.6 0-4.3-1.4-5.8-3.3-7.1-1.9-1.4-4.8-1.9-5.6-1.9-3 0.1-4.3 0.8-6.8 5.7-1.2 2.4-4.1 3.7-6.7 3.1-2.6-0.6-4.6-3.1-4.6-5.8 0-4.4-1.3-5.9-3.1-7.1-1.7-1.3-4.4-1.9-5.9-1.9-3.2 0-8.2 2.9-9.6 5.6-1.1 2.5-4.1 3.9-6.7 3.3-2.7-0.6-4.7-3.2-4.7-5.9v-63c0-6.8-5.2-12-12-12-6.8 0-12 5.2-12 12z"/>
	<path id="Layer" class="s0" d="m321 78c0.1-1.5 0.4-3 1.7-4.2l27-27c2.2-2.4 6.3-2.4 8.6-0.1 2.2 2.2 2.2 6.3-0.1 8.5l-16.8 16.8h57.6c3.3 0 6 2.7 6 6 0 3.3-2.7 6-6 6h-57.6l16.8 16.8c2.3 2.2 2.3 6.3 0.1 8.6-2.3 2.2-6.4 2.1-8.6-0.2l-27-27c-1.3-1.2-1.6-2.5-1.7-4.2z"/>
	<path id="Layer" class="s1" d="m89.9 75c-14.9 0-26.9-12.1-26.9-27.1 0-14.9 12.1-26.9 27.1-26.9 14.9 0 26.9 12.1 26.9 27.1 0 14.9-12.1 26.9-27.1 26.9z"/>
	<g id="Layer">
		<path id="1" class="s0" aria-label="1"  d="m108.1 198.6v54.4h-6.9v-45.8l-13.9 5.1v-6.3l19.7-7.4z"/>
		<path id="s
" class="s0" aria-label="s
"  d="m147.7 242.3q0-2.8-2.1-4.3-2.1-1.5-7.3-2.7-5.3-1.1-8.3-2.6-3.1-1.6-4.6-3.8-1.4-2.1-1.4-5.1 0-4.9 4.1-8.3 4.2-3.5 10.7-3.5 6.9 0 11.1 3.6 4.3 3.5 4.3 9h-6.9q0-2.8-2.4-4.9-2.4-2-6.1-2-3.7 0-5.8 1.6-2.1 1.7-2.1 4.3 0 2.5 1.9 3.7 2 1.3 7.1 2.5 5.2 1.1 8.4 2.7 3.2 1.6 4.7 3.9 1.6 2.2 1.6 5.4 0 5.4-4.3 8.7-4.4 3.2-11.2 3.2-4.9 0-8.6-1.7-3.7-1.7-5.8-4.7-2.1-3.1-2.1-6.7h6.9q0.2 3.5 2.7 5.5 2.6 2 6.9 2 3.9 0 6.2-1.5 2.4-1.6 2.4-4.3z"/>
	</g>
</svg>